# xmcd
#
# Track frame offsets:
#	150
#	21048
#	40330
#	58938
#	89383
#	133006
#	176413
#	199304
#	233680
#
# Disc length: 3349 seconds
#
# Revision: 0
# Processed by: cddbd v1.4PL0 Copyright (c) Steve Scherf et al.
# Submitted via: dBpowerAMP V4.0
#
DISCID=770d1309
DTITLE=Chris Duarte Group - Texas Sugar - Strat Magik
DYEAR=1900
DGENRE=Blues
TTITLE0=My Way Down
TTITLE1=Letter To My Girlfriend
TTITLE2=C-Butt Rock
TTITLE3=Just Kissed My Baby
TTITLE4=Shiloh
TTITLE5=Scrawl
TTITLE6=What Can I Do
TTITLE7=Big Legged Woman (Live)
TTITLE8=Borrowed Love
EXTD=
EXTT0=
EXTT1=
EXTT2=
EXTT3=
EXTT4=
EXTT5=
EXTT6=
EXTT7=
EXTT8=
PLAYORDER=
